<svg width="500" height="500" viewBox="0 0 500 500" fill="none" xmlns="http://www.w3.org/2000/svg">
<rect width="500" height="500" fill="#E6DACC"/>
<path fill-rule="evenodd" clip-rule="evenodd" d="M351.864 210.348L352.145 211.191L352.919 213.369L353.2 214.212L353.973 216.354L354.255 217.197L354.923 219.164L355.204 219.972L355.837 221.833L356.118 222.641L356.716 224.397L356.997 225.205L357.489 226.89L357.735 227.698L358.262 229.244L358.544 230.051L359.036 231.456L359.317 232.264L359.774 233.599L360.055 234.371L360.477 235.601L360.723 236.373L361.005 237.427L361.251 238.164L361.637 239.253L361.884 239.991L362.235 241.009L362.481 241.712L362.798 242.625L363.044 243.327L363.36 244.205L363.606 244.872L363.887 245.68L364.098 246.312L364.344 247.05L364.555 247.682L364.802 248.385L365.012 248.982L365.259 249.614V250.211L365.469 250.773L365.68 251.335V251.862V252.424V252.915L365.856 253.442V253.863V254.39V254.777V255.268V255.62V256.076V256.427V256.849V257.165V257.586V257.867V258.254V258.499V258.851V259.097V259.448V259.658V259.975V260.185V260.501V260.782V261.098V261.485V262.363V262.995V264.751V265.524V265.805V266.823V268.052V268.509V268.966V269.492V270.054V270.651V271.284V272.548V273.321V274.163C366.102 291.724 388.216 312.797 384.137 324.878C380.059 336.96 400.591 359.648 407.2 376.541H380.798C380.804 374.141 380.068 371.798 378.688 369.833L315.055 268.193L325.602 251.159L338.434 238.305L351.407 209.857L351.688 210.348H351.864ZM358.157 205.818L464.61 375.769C465.555 377.077 466.059 378.651 466.052 380.264C466.052 382.323 465.233 384.297 463.776 385.753C462.319 387.208 460.343 388.026 458.282 388.026H45.5827C43.4946 388.035 41.4431 387.478 39.6473 386.414C37.8514 385.349 36.3786 383.817 35.386 381.982C34.3934 380.147 33.9184 378.077 34.0115 375.993C34.1046 373.909 34.7624 371.889 35.9148 370.149L200.2 116.821C201.128 115.15 202.472 113.747 204.102 112.747C206.704 111.128 209.843 110.607 212.829 111.298C215.815 111.99 218.404 113.837 220.028 116.435L309.887 259.939L345.044 206.029C345.664 204.898 346.574 203.953 347.68 203.289C349.415 202.241 351.492 201.915 353.464 202.382C355.437 202.848 357.147 204.069 358.227 205.783L358.157 205.818ZM218.411 376.436H47.7624L84.4304 328.004L140.68 229.665L172.813 192.472L189.161 156.367L210.255 122.511L210.677 123.213C213.77 132.555 215.106 137.648 217.708 145.164C219.255 149.484 225.794 158.896 227.094 162.478C245.762 214.317 236.305 195.282 236.552 218.251C236.833 244.627 269.844 276.025 263.762 293.866C256.977 313.604 293.223 350.833 300.009 376.436H218.411Z" fill="#49403B"/>
<g clip-path="url(#clip0_203_2501)">
<path fill-rule="evenodd" clip-rule="evenodd" d="M249.879 283.43L200.949 332.86V308.23C170.009 301.82 145.559 308.89 126.999 332.42C130.219 284.02 163.289 260.66 200.949 259.11V234L249.879 283.43Z" fill="#49403B"/>
</g>
<g clip-path="url(#clip1_203_2501)">
<path fill-rule="evenodd" clip-rule="evenodd" d="M321 267L336.928 283V275.028C346.999 272.953 354.958 275.241 361 282.858C359.952 267.191 349.187 259.63 336.928 259.128V251L321 267Z" fill="#49403B"/>
</g>
<defs>
<clipPath id="clip0_203_2501">
<rect width="122.88" height="98.86" fill="white" transform="matrix(-1 0 0 1 249.879 234)"/>
</clipPath>
<clipPath id="clip1_203_2501">
<rect width="40" height="32" fill="white" transform="translate(321 251)"/>
</clipPath>
</defs>
</svg>
