<svg width="500" height="500" viewBox="0 0 500 500" fill="none" xmlns="http://www.w3.org/2000/svg">
<rect width="500" height="500" fill="url(#paint0_linear_201_2472)"/>
<g filter="url(#filter0_d_201_2472)">
<path d="M114.057 359.783C100.141 359.783 92.5234 353.045 88.1289 337.225L44.0371 177.264C42.5723 171.844 41.6934 166.57 41.6934 162.615C41.6934 150.311 50.043 142.693 63.5195 142.693C75.0918 142.693 82.123 149.139 84.7598 161.736L116.4 298.699H117.572L153.168 162.469C156.537 148.699 163.568 142.693 175.873 142.693C187.885 142.693 195.209 149.139 198.432 162.176L234.027 298.699H235.199L266.84 161.736C269.623 148.992 276.654 142.693 288.227 142.693C301.703 142.693 310.053 150.311 310.053 162.615C310.053 166.424 309.174 171.697 307.709 177.264L263.471 337.518C259.076 353.045 251.459 359.783 237.836 359.783C223.627 359.783 215.863 353.191 211.615 337.371L176.459 212.566H175.141L140.131 337.371C135.883 352.898 127.973 359.783 114.057 359.783Z" fill="#F2F2F2"/>
<path d="M288.443 359.783C274.527 359.783 266.324 351.287 266.324 336.785V165.838C266.324 151.189 274.527 142.693 288.443 142.693C302.359 142.693 310.562 151.189 310.562 165.838V231.463H405.777V165.838C405.777 151.189 413.98 142.693 427.896 142.693C441.812 142.693 450.016 151.189 450.016 165.838V336.785C450.016 351.287 441.812 359.783 427.896 359.783C413.98 359.783 405.777 351.287 405.777 336.785V267.938H310.562V336.785C310.562 351.287 302.359 359.783 288.443 359.783Z" fill="white"/>
</g>
<defs>
<filter id="filter0_d_201_2472" x="37.6953" y="142.693" width="416.32" height="225.09" filterUnits="userSpaceOnUse" color-interpolation-filters="sRGB">
<feFlood flood-opacity="0" result="BackgroundImageFix"/>
<feColorMatrix in="SourceAlpha" type="matrix" values="0 0 0 0 0 0 0 0 0 0 0 0 0 0 0 0 0 0 127 0" result="hardAlpha"/>
<feOffset dy="4"/>
<feGaussianBlur stdDeviation="2"/>
<feComposite in2="hardAlpha" operator="out"/>
<feColorMatrix type="matrix" values="0 0 0 0 0 0 0 0 0 0 0 0 0 0 0 0 0 0 0.25 0"/>
<feBlend mode="normal" in2="BackgroundImageFix" result="effect1_dropShadow_201_2472"/>
<feBlend mode="normal" in="SourceGraphic" in2="effect1_dropShadow_201_2472" result="shape"/>
</filter>
<linearGradient id="paint0_linear_201_2472" x1="-10.3968" y1="-28.5535" x2="331" y2="588" gradientUnits="userSpaceOnUse">
<stop stop-color="#AB28B2"/>
<stop offset="1" stop-color="#49114C"/>
</linearGradient>
</defs>
</svg>
