<svg width="1258" height="500" viewBox="0 0 1258 500" fill="none" xmlns="http://www.w3.org/2000/svg">
<g clip-path="url(#clip0_3008_91)">
<path d="M1.5 -4L300 479L519 339.5" stroke="#3D2A22" stroke-width="40"/>
<path d="M-0.5 -6L298 477L517 337.5" stroke="#F4EFE6" stroke-width="5"/>
</g>
<rect x="2.5" y="2.5" width="495" height="495" stroke="#3D2A22" stroke-width="5"/>
<path d="M570.334 77.5455L610.817 196.011H612.45L652.933 77.5455H676.655L624.311 223H598.956L546.612 77.5455H570.334ZM816.783 150.273C816.783 165.803 813.942 179.155 808.26 190.33C802.578 201.456 794.789 210.027 784.893 216.04C775.045 222.006 763.847 224.989 751.3 224.989C738.705 224.989 727.46 222.006 717.564 216.04C707.715 210.027 699.95 201.433 694.268 190.259C688.587 179.084 685.746 165.756 685.746 150.273C685.746 134.742 688.587 121.414 694.268 110.287C699.95 99.1127 707.715 90.5426 717.564 84.5767C727.46 78.5634 738.705 75.5568 751.3 75.5568C763.847 75.5568 775.045 78.5634 784.893 84.5767C794.789 90.5426 802.578 99.1127 808.26 110.287C813.942 121.414 816.783 134.742 816.783 150.273ZM795.05 150.273C795.05 138.436 793.132 128.469 789.297 120.372C785.509 112.228 780.301 106.073 773.672 101.906C767.09 97.6922 759.633 95.5852 751.3 95.5852C742.919 95.5852 735.438 97.6922 728.857 101.906C722.275 106.073 717.067 112.228 713.232 120.372C709.444 128.469 707.55 138.436 707.55 150.273C707.55 162.11 709.444 172.1 713.232 180.244C717.067 188.341 722.275 194.496 728.857 198.71C735.438 202.877 742.919 204.96 751.3 204.96C759.633 204.96 767.09 202.877 773.672 198.71C780.301 194.496 785.509 188.341 789.297 180.244C793.132 172.1 795.05 162.11 795.05 150.273ZM844.144 223V77.5455H866.09V204.108H931.999V223H844.144ZM930.916 96.4375V77.5455H1043.49V96.4375H998.104V223H976.229V96.4375H930.916ZM1090.31 77.5455V223H1068.36V77.5455H1090.31ZM1201.6 115.756C1200.84 109.032 1197.72 103.824 1192.23 100.131C1186.73 96.3902 1179.82 94.5199 1171.49 94.5199C1165.52 94.5199 1160.36 95.4669 1156 97.3608C1151.65 99.2074 1148.26 101.764 1145.85 105.031C1143.48 108.251 1142.3 111.92 1142.3 116.04C1142.3 119.496 1143.1 122.479 1144.71 124.989C1146.37 127.498 1148.52 129.605 1151.18 131.31C1153.87 132.967 1156.76 134.364 1159.84 135.5C1162.92 136.589 1165.88 137.489 1168.72 138.199L1182.92 141.892C1187.56 143.028 1192.32 144.567 1197.2 146.509C1202.08 148.45 1206.6 151.007 1210.76 154.179C1214.93 157.351 1218.29 161.281 1220.85 165.969C1223.45 170.656 1224.75 176.267 1224.75 182.801C1224.75 191.04 1222.62 198.355 1218.36 204.747C1214.15 211.139 1208.02 216.182 1199.97 219.875C1191.97 223.568 1182.28 225.415 1170.92 225.415C1160.03 225.415 1150.61 223.687 1142.65 220.23C1134.7 216.774 1128.47 211.873 1123.97 205.528C1119.48 199.136 1116.99 191.561 1116.52 182.801H1138.53C1138.96 188.057 1140.66 192.437 1143.65 195.94C1146.68 199.397 1150.54 201.977 1155.22 203.682C1159.96 205.339 1165.14 206.168 1170.78 206.168C1176.98 206.168 1182.5 205.197 1187.33 203.256C1192.2 201.267 1196.04 198.521 1198.83 195.017C1201.63 191.466 1203.02 187.323 1203.02 182.588C1203.02 178.279 1201.79 174.752 1199.33 172.006C1196.91 169.259 1193.62 166.987 1189.46 165.188C1185.34 163.388 1180.67 161.802 1175.47 160.429L1158.28 155.741C1146.63 152.569 1137.4 147.905 1130.58 141.75C1123.81 135.595 1120.42 127.451 1120.42 117.318C1120.42 108.937 1122.7 101.622 1127.24 95.3722C1131.79 89.1222 1137.94 84.2689 1145.71 80.8125C1153.47 77.3087 1162.23 75.5568 1171.99 75.5568C1181.83 75.5568 1190.52 77.285 1198.05 80.7415C1205.63 84.1979 1211.59 88.9564 1215.95 95.017C1220.3 101.03 1222.58 107.943 1222.77 115.756H1201.6Z" fill="#3D2A22"/>
<path d="M731.058 417V271.545H753.004V398.108H818.913V417H731.058ZM863.658 417H840.362L892.706 271.545H918.061L970.405 417H947.109L905.987 297.966H904.851L863.658 417ZM867.564 360.04H943.132V378.506H867.564V360.04ZM991.41 417V271.545H1044.68C1055 271.545 1063.55 273.25 1070.32 276.659C1077.09 280.021 1082.15 284.59 1085.51 290.366C1088.88 296.096 1090.56 302.559 1090.56 309.756C1090.56 315.816 1089.44 320.93 1087.22 325.097C1084.99 329.216 1082.01 332.53 1078.27 335.04C1074.58 337.502 1070.51 339.301 1066.05 340.438V341.858C1070.88 342.095 1075.6 343.657 1080.19 346.545C1084.83 349.386 1088.66 353.435 1091.69 358.69C1094.72 363.946 1096.24 370.338 1096.24 377.866C1096.24 385.3 1094.49 391.976 1090.98 397.895C1087.53 403.766 1082.18 408.43 1074.93 411.886C1067.69 415.295 1058.43 417 1047.16 417H991.41ZM1013.36 398.179H1045.03C1055.54 398.179 1063.07 396.143 1067.62 392.071C1072.16 387.999 1074.44 382.909 1074.44 376.801C1074.44 372.208 1073.28 367.994 1070.96 364.159C1068.64 360.324 1065.32 357.27 1061.01 354.997C1056.75 352.724 1051.68 351.588 1045.81 351.588H1013.36V398.179ZM1013.36 334.472H1042.76C1047.68 334.472 1052.11 333.525 1056.04 331.631C1060.02 329.737 1063.17 327.085 1065.49 323.676C1067.85 320.22 1069.04 316.148 1069.04 311.46C1069.04 305.447 1066.93 300.404 1062.72 296.332C1058.5 292.26 1052.04 290.224 1043.33 290.224H1013.36V334.472ZM1201.6 309.756C1200.84 303.032 1197.72 297.824 1192.23 294.131C1186.73 290.39 1179.82 288.52 1171.49 288.52C1165.52 288.52 1160.36 289.467 1156 291.361C1151.65 293.207 1148.26 295.764 1145.85 299.031C1143.48 302.251 1142.3 305.92 1142.3 310.04C1142.3 313.496 1143.1 316.479 1144.71 318.989C1146.37 321.498 1148.52 323.605 1151.18 325.31C1153.87 326.967 1156.76 328.364 1159.84 329.5C1162.92 330.589 1165.88 331.489 1168.72 332.199L1182.92 335.892C1187.56 337.028 1192.32 338.567 1197.2 340.509C1202.08 342.45 1206.6 345.007 1210.76 348.179C1214.93 351.351 1218.29 355.281 1220.85 359.969C1223.45 364.656 1224.75 370.267 1224.75 376.801C1224.75 385.04 1222.62 392.355 1218.36 398.747C1214.15 405.139 1208.02 410.182 1199.97 413.875C1191.97 417.568 1182.28 419.415 1170.92 419.415C1160.03 419.415 1150.61 417.687 1142.65 414.23C1134.7 410.774 1128.47 405.873 1123.97 399.528C1119.48 393.136 1116.99 385.561 1116.52 376.801H1138.53C1138.96 382.057 1140.66 386.437 1143.65 389.94C1146.68 393.397 1150.54 395.977 1155.22 397.682C1159.96 399.339 1165.14 400.168 1170.78 400.168C1176.98 400.168 1182.5 399.197 1187.33 397.256C1192.2 395.267 1196.04 392.521 1198.83 389.017C1201.63 385.466 1203.02 381.323 1203.02 376.588C1203.02 372.279 1201.79 368.752 1199.33 366.006C1196.91 363.259 1193.62 360.987 1189.46 359.188C1185.34 357.388 1180.67 355.802 1175.47 354.429L1158.28 349.741C1146.63 346.569 1137.4 341.905 1130.58 335.75C1123.81 329.595 1120.42 321.451 1120.42 311.318C1120.42 302.937 1122.7 295.622 1127.24 289.372C1131.79 283.122 1137.94 278.269 1145.71 274.812C1153.47 271.309 1162.23 269.557 1171.99 269.557C1181.83 269.557 1190.52 271.285 1198.05 274.741C1205.63 278.198 1211.59 282.956 1215.95 289.017C1220.3 295.03 1222.58 301.943 1222.77 309.756H1201.6Z" fill="#3D2A22"/>
<defs>
<clipPath id="clip0_3008_91">
<rect width="500" height="500" fill="white"/>
</clipPath>
</defs>
</svg>
