<svg width="417" height="226" viewBox="0 0 417 226" fill="none" xmlns="http://www.w3.org/2000/svg">
<g filter="url(#filter0_d_201_2473)">
<path d="M76.3613 217.09C62.4453 217.09 54.8281 210.352 50.4336 194.531L6.3418 34.5703C4.87695 29.1504 3.99805 23.877 3.99805 19.9219C3.99805 7.61719 12.3477 0 25.8242 0C37.3965 0 44.4277 6.44531 47.0645 19.043L78.7051 156.006H79.877L115.473 19.7754C118.842 6.00586 125.873 0 138.178 0C150.189 0 157.514 6.44531 160.736 19.4824L196.332 156.006H197.504L229.145 19.043C231.928 6.29883 238.959 0 250.531 0C264.008 0 272.357 7.61719 272.357 19.9219C272.357 23.7305 271.479 29.0039 270.014 34.5703L225.775 194.824C221.381 210.352 213.764 217.09 200.141 217.09C185.932 217.09 178.168 210.498 173.92 194.678L138.764 69.873H137.445L102.436 194.678C98.1875 210.205 90.2773 217.09 76.3613 217.09Z" fill="#F2F2F2"/>
<path d="M250.748 217.09C236.832 217.09 228.629 208.594 228.629 194.092V23.1445C228.629 8.49609 236.832 0 250.748 0C264.664 0 272.867 8.49609 272.867 23.1445V88.7695H368.082V23.1445C368.082 8.49609 376.285 0 390.201 0C404.117 0 412.32 8.49609 412.32 23.1445V194.092C412.32 208.594 404.117 217.09 390.201 217.09C376.285 217.09 368.082 208.594 368.082 194.092V125.244H272.867V194.092C272.867 208.594 264.664 217.09 250.748 217.09Z" fill="white"/>
</g>
<defs>
<filter id="filter0_d_201_2473" x="0" y="0" width="416.32" height="225.09" filterUnits="userSpaceOnUse" color-interpolation-filters="sRGB">
<feFlood flood-opacity="0" result="BackgroundImageFix"/>
<feColorMatrix in="SourceAlpha" type="matrix" values="0 0 0 0 0 0 0 0 0 0 0 0 0 0 0 0 0 0 127 0" result="hardAlpha"/>
<feOffset dy="4"/>
<feGaussianBlur stdDeviation="2"/>
<feComposite in2="hardAlpha" operator="out"/>
<feColorMatrix type="matrix" values="0 0 0 0 0 0 0 0 0 0 0 0 0 0 0 0 0 0 0.25 0"/>
<feBlend mode="normal" in2="BackgroundImageFix" result="effect1_dropShadow_201_2473"/>
<feBlend mode="normal" in="SourceGraphic" in2="effect1_dropShadow_201_2473" result="shape"/>
</filter>
</defs>
</svg>
