<svg width="1000" height="1000" viewBox="0 0 1000 1000" fill="none" xmlns="http://www.w3.org/2000/svg">
<rect width="1000" height="1000" fill="#2A2929"/>
<path d="M254 478H745" stroke="#D9D9D9" stroke-width="29" stroke-linecap="round"/>
<path d="M254 655H745" stroke="#D9D9D9" stroke-width="29" stroke-linecap="round"/>
<path d="M254 832H745" stroke="#D9D9D9" stroke-width="29" stroke-linecap="round"/>
<rect width="1000" height="260" fill="#FFE32F"/>
<rect x="10" y="215" width="39" height="104" rx="19.5" fill="#D9D9D9"/>
<rect x="104" y="215" width="39" height="104" rx="19.5" fill="#D9D9D9"/>
<rect x="198" y="215" width="39" height="104" rx="19.5" fill="#D9D9D9"/>
<rect x="292" y="215" width="39" height="104" rx="19.5" fill="#D9D9D9"/>
<rect x="386" y="215" width="39" height="104" rx="19.5" fill="#D9D9D9"/>
<rect x="480" y="215" width="39" height="104" rx="19.5" fill="#D9D9D9"/>
<rect x="574" y="215" width="39" height="104" rx="19.5" fill="#D9D9D9"/>
<rect x="668" y="215" width="39" height="104" rx="19.5" fill="#D9D9D9"/>
<rect x="762" y="215" width="39" height="104" rx="19.5" fill="#D9D9D9"/>
<rect x="856" y="215" width="39" height="104" rx="19.5" fill="#D9D9D9"/>
<rect x="950" y="215" width="39" height="104" rx="19.5" fill="#D9D9D9"/>
</svg>
