<svg width="120" height="40" viewBox="0 0 120 40" fill="none" xmlns="http://www.w3.org/2000/svg">
<rect x="0.5" y="0.5" width="119" height="39" rx="6.5" fill="#0C0D10"/>
<rect x="0.5" y="0.5" width="119" height="39" rx="6.5" stroke="#A6A6A6"/>
<path d="M81.5267 19.201V21.492H80.0906V22.9944H81.5267V28.0994C81.5267 29.8426 82.3152 30.5398 84.2991 30.5398C84.6478 30.5398 84.9798 30.4983 85.2703 30.4485V28.9627C85.0213 28.9876 84.8636 29.0042 84.5896 29.0042C83.7015 29.0042 83.3113 28.5892 83.3113 27.6429V22.9944H85.2703V21.492H83.3113V19.201H81.5267Z" fill="white"/>
<path d="M90.3242 30.6644C92.9638 30.6644 94.5825 28.8963 94.5825 25.9661C94.5825 23.0525 92.9555 21.2762 90.3242 21.2762C87.6845 21.2762 86.0576 23.0525 86.0576 25.9661C86.0576 28.8963 87.6762 30.6644 90.3242 30.6644ZM90.3242 29.0789C88.7719 29.0789 87.9003 27.9417 87.9003 25.9661C87.9003 24.0071 88.7719 22.8616 90.3242 22.8616C91.8681 22.8616 92.748 24.0071 92.748 25.9661C92.748 27.9334 91.8681 29.0789 90.3242 29.0789Z" fill="white"/>
<path d="M95.9674 30.49H97.752V25.1526C97.752 23.8826 98.7066 23.0276 100.06 23.0276C100.375 23.0276 100.906 23.0857 101.056 23.1356V21.3758C100.865 21.326 100.524 21.3011 100.259 21.3011C99.0802 21.3011 98.0758 21.9485 97.8184 22.8367H97.6856V21.4505H95.9674V30.49Z" fill="white"/>
<path d="M105.487 22.7952C106.807 22.7952 107.67 23.7166 107.712 25.136H103.146C103.246 23.7249 104.167 22.7952 105.487 22.7952ZM107.703 28.0496C107.371 28.7552 106.633 29.1453 105.553 29.1453C104.126 29.1453 103.204 28.1409 103.146 26.5555V26.4559H109.53V25.8333C109.53 22.9944 108.01 21.2762 105.495 21.2762C102.947 21.2762 101.328 23.1107 101.328 25.9993C101.328 28.888 102.914 30.6644 105.504 30.6644C107.571 30.6644 109.015 29.6683 109.422 28.0496H107.703Z" fill="white"/>
<path d="M69.8231 27.1519C69.9607 29.3716 71.8105 30.7912 74.5636 30.7912C77.506 30.7912 79.3472 29.3028 79.3472 26.9282C79.3472 25.0612 78.2975 24.0288 75.7509 23.4352L74.3829 23.0996C72.7655 22.7211 72.1116 22.2135 72.1116 21.3273C72.1116 20.2088 73.1268 19.4775 74.6497 19.4775C76.095 19.4775 77.093 20.1916 77.2737 21.3359H79.1493C79.0374 19.2452 77.1963 17.774 74.6755 17.774C71.9654 17.774 70.1586 19.2452 70.1586 21.4564C70.1586 23.2803 71.1824 24.3643 73.4279 24.8892L75.0282 25.2763C76.6715 25.6635 77.3942 26.2313 77.3942 27.1777C77.3942 28.2789 76.2585 29.0791 74.7099 29.0791C73.0494 29.0791 71.8965 28.3306 71.7331 27.1519H69.8231Z" fill="white"/>
<path d="M51.3357 21.3011C50.1072 21.3011 49.0447 21.9153 48.4969 22.9446H48.3641V21.4505H46.6458V33.4949H48.4305V29.1204H48.5716C49.0447 30.075 50.0657 30.6395 51.3523 30.6395C53.6351 30.6395 55.0877 28.8382 55.0877 25.9661C55.0877 23.094 53.6351 21.3011 51.3357 21.3011ZM50.8294 29.0374C49.3353 29.0374 48.3973 27.8587 48.3973 25.9744C48.3973 24.0818 49.3353 22.9031 50.8377 22.9031C52.3484 22.9031 53.2532 24.0569 53.2532 25.9661C53.2532 27.8836 52.3484 29.0374 50.8294 29.0374Z" fill="white"/>
<path d="M61.3325 21.3011C60.104 21.3011 59.0415 21.9153 58.4937 22.9446H58.3609V21.4505H56.6426V33.4949H58.4273V29.1204H58.5684C59.0415 30.075 60.0625 30.6395 61.3491 30.6395C63.6319 30.6395 65.0845 28.8382 65.0845 25.9661C65.0845 23.094 63.6319 21.3011 61.3325 21.3011ZM60.8262 29.0374C59.3321 29.0374 58.3941 27.8587 58.3941 25.9744C58.3941 24.0818 59.3321 22.9031 60.8345 22.9031C62.3452 22.9031 63.25 24.0569 63.25 25.9661C63.25 27.8836 62.3452 29.0374 60.8262 29.0374Z" fill="white"/>
<path d="M43.4438 30.49H45.4914L41.009 18.0752H38.9356L34.4531 30.49H36.4319L37.5762 27.1949H42.3081L43.4438 30.49ZM39.8733 20.3293H40.0196L41.8177 25.5774H38.0666L39.8733 20.3293Z" fill="white"/>
<path d="M35.6484 8.71094V14.7H37.8108C39.5955 14.7 40.6289 13.6001 40.6289 11.6868C40.6289 9.80249 39.5872 8.71094 37.8108 8.71094H35.6484ZM36.5781 9.55762H37.707C38.948 9.55762 39.6826 10.3462 39.6826 11.6992C39.6826 13.073 38.9604 13.8533 37.707 13.8533H36.5781V9.55762Z" fill="white"/>
<path d="M43.794 14.7871C45.1138 14.7871 45.9231 13.9031 45.9231 12.438C45.9231 10.9812 45.1097 10.093 43.794 10.093C42.4742 10.093 41.6607 10.9812 41.6607 12.438C41.6607 13.9031 42.47 14.7871 43.794 14.7871ZM43.794 13.9944C43.0179 13.9944 42.5821 13.4258 42.5821 12.438C42.5821 11.4585 43.0179 10.8857 43.794 10.8857C44.566 10.8857 45.0059 11.4585 45.0059 12.438C45.0059 13.4216 44.566 13.9944 43.794 13.9944Z" fill="white"/>
<path d="M52.8153 10.1802H51.9229L51.1178 13.6292H51.0472L50.1175 10.1802H49.2625L48.3329 13.6292H48.2665L47.4571 10.1802H46.5523L47.7975 14.7H48.7147L49.6444 11.3713H49.7149L50.6488 14.7H51.5743L52.8153 10.1802Z" fill="white"/>
<path d="M53.8429 14.7H54.7353V12.0562C54.7353 11.3506 55.1544 10.9106 55.8144 10.9106C56.4743 10.9106 56.7897 11.2717 56.7897 11.998V14.7H57.682V11.7739C57.682 10.699 57.1259 10.093 56.1173 10.093C55.4367 10.093 54.9884 10.396 54.7685 10.8982H54.702V10.1802H53.8429V14.7Z" fill="white"/>
<path d="M59.0874 14.7H59.9797V8.41626H59.0874V14.7Z" fill="white"/>
<path d="M63.3357 14.7871C64.6555 14.7871 65.4648 13.9031 65.4648 12.438C65.4648 10.9812 64.6514 10.093 63.3357 10.093C62.0159 10.093 61.2024 10.9812 61.2024 12.438C61.2024 13.9031 62.0117 14.7871 63.3357 14.7871ZM63.3357 13.9944C62.5596 13.9944 62.1238 13.4258 62.1238 12.438C62.1238 11.4585 62.5596 10.8857 63.3357 10.8857C64.1077 10.8857 64.5476 11.4585 64.5476 12.438C64.5476 13.4216 64.1077 13.9944 63.3357 13.9944Z" fill="white"/>
<path d="M68.1236 14.0234C67.638 14.0234 67.2852 13.7869 67.2852 13.3801C67.2852 12.9817 67.5674 12.77 68.19 12.7285L69.294 12.658V13.0356C69.294 13.5959 68.7959 14.0234 68.1236 14.0234ZM67.8953 14.7747C68.4888 14.7747 68.9827 14.5173 69.2525 14.0649H69.323V14.7H70.1822V11.6121C70.1822 10.6575 69.543 10.093 68.41 10.093C67.3848 10.093 66.6543 10.5911 66.563 11.3672H67.4263C67.5259 11.0476 67.8704 10.865 68.3685 10.865C68.9786 10.865 69.294 11.1348 69.294 11.6121V12.0022L68.0696 12.0728C66.9947 12.1392 66.3887 12.6082 66.3887 13.4216C66.3887 14.2476 67.0237 14.7747 67.8953 14.7747Z" fill="white"/>
<path d="M73.2103 14.7747C73.8329 14.7747 74.36 14.48 74.6297 13.9861H74.7003V14.7H75.5553V8.41626H74.6629V10.8982H74.5965C74.3517 10.4001 73.8287 10.1055 73.2103 10.1055C72.0689 10.1055 71.3343 11.0103 71.3343 12.438C71.3343 13.8699 72.0606 14.7747 73.2103 14.7747ZM73.4635 10.9065C74.2105 10.9065 74.6795 11.5 74.6795 12.4421C74.6795 13.3884 74.2147 13.9736 73.4635 13.9736C72.7081 13.9736 72.2557 13.3967 72.2557 12.438C72.2557 11.4875 72.7123 10.9065 73.4635 10.9065Z" fill="white"/>
<path d="M81.3417 14.7871C82.6616 14.7871 83.4709 13.9031 83.4709 12.438C83.4709 10.9812 82.6574 10.093 81.3417 10.093C80.0219 10.093 79.2084 10.9812 79.2084 12.438C79.2084 13.9031 80.0178 14.7871 81.3417 14.7871ZM81.3417 13.9944C80.5656 13.9944 80.1298 13.4258 80.1298 12.438C80.1298 11.4585 80.5656 10.8857 81.3417 10.8857C82.1137 10.8857 82.5537 11.4585 82.5537 12.438C82.5537 13.4216 82.1137 13.9944 81.3417 13.9944Z" fill="white"/>
<path d="M84.6521 14.7H85.5444V12.0562C85.5444 11.3506 85.9636 10.9106 86.6235 10.9106C87.2834 10.9106 87.5989 11.2717 87.5989 11.998V14.7H88.4912V11.7739C88.4912 10.699 87.9351 10.093 86.9265 10.093C86.2458 10.093 85.7976 10.396 85.5776 10.8982H85.5112V10.1802H84.6521V14.7Z" fill="white"/>
<path d="M92.6009 9.05542V10.2009H91.8829V10.9521H92.6009V13.5046C92.6009 14.3762 92.9952 14.7249 93.9872 14.7249C94.1615 14.7249 94.3275 14.7041 94.4728 14.6792V13.9363C94.3482 13.9487 94.2694 13.957 94.1324 13.957C93.6883 13.957 93.4933 13.7495 93.4933 13.2764V10.9521H94.4728V10.2009H93.4933V9.05542H92.6009Z" fill="white"/>
<path d="M95.6706 14.7H96.5629V12.0603C96.5629 11.3755 96.9696 10.9148 97.7001 10.9148C98.331 10.9148 98.6671 11.28 98.6671 12.0022V14.7H99.5595V11.7822C99.5595 10.7073 98.966 10.0972 98.0031 10.0972C97.3224 10.0972 96.8451 10.4001 96.6251 10.9065H96.5546V8.41626H95.6706V14.7Z" fill="white"/>
<path d="M102.779 10.8525C103.438 10.8525 103.87 11.3132 103.891 12.0229H101.608C101.658 11.3174 102.119 10.8525 102.779 10.8525ZM103.887 13.4797C103.721 13.8325 103.351 14.0276 102.812 14.0276C102.098 14.0276 101.637 13.5254 101.608 12.7327V12.6829H104.8V12.3716C104.8 10.9521 104.04 10.093 102.783 10.093C101.508 10.093 100.699 11.0103 100.699 12.4546C100.699 13.8989 101.492 14.7871 102.787 14.7871C103.82 14.7871 104.542 14.2891 104.746 13.4797H103.887Z" fill="white"/>
<path d="M24.7661 20.3008C24.7877 18.6198 25.6905 17.0292 27.1226 16.1488C26.2192 14.8584 24.7059 14.0403 23.1315 13.9911C21.4522 13.8148 19.8243 14.9959 18.9686 14.9959C18.0963 14.9959 16.7788 14.0086 15.3601 14.0378C13.5108 14.0975 11.7868 15.1489 10.8871 16.7656C8.95314 20.1141 10.3957 25.0351 12.2483 27.7417C13.1752 29.0671 14.2585 30.5475 15.676 30.495C17.063 30.4375 17.5811 29.6105 19.2554 29.6105C20.9141 29.6105 21.4002 30.495 22.8464 30.4616C24.3348 30.4375 25.2725 29.1304 26.1669 27.7925C26.8329 26.8481 27.3453 25.8044 27.6853 24.7C25.9362 23.9602 24.7681 22.2 24.7661 20.3008Z" fill="white"/>
<path d="M22.0344 12.2111C22.8459 11.2369 23.2457 9.98469 23.1489 8.72046C21.9091 8.85068 20.7638 9.44324 19.9413 10.3801C19.1371 11.2954 18.7185 12.5255 18.7976 13.7415C20.0379 13.7542 21.2572 13.1777 22.0344 12.2111Z" fill="white"/>
</svg>
