<svg width="224" height="248" viewBox="0 0 224 248" fill="none" xmlns="http://www.w3.org/2000/svg">
<path fill-rule="evenodd" clip-rule="evenodd" d="M107.425 246.828C107.178 246.74 106.558 246.518 105.778 246.237C105.657 246.485 105.53 246.753 105.35 247.127C104.66 247.317 103.931 248.366 102.998 247.728C102.16 247.154 101.273 248.67 100.592 247.511C98.8325 247.708 97.563 246.469 96.3335 245.653C95.2183 244.912 93.8258 244.732 92.8571 243.612C92.0143 242.638 90.6774 242.09 89.5544 241.352C89.5251 240.709 89.4997 240.113 89.4626 239.286C88.9861 239.435 88.6287 239.546 88.0652 239.723C87.8152 239.501 87.4022 239.135 86.9549 238.739C86.203 238.984 85.496 239.213 84.6659 239.484C84.2274 239.099 83.7919 238.717 83.3163 238.3C83.1992 238.629 83.0898 238.936 82.9033 239.46C82.4785 238.861 82.1289 238.369 81.7617 237.851C81.6435 237.952 81.4609 238.108 81.1748 238.353C80.5186 236.59 82.0986 235.02 81.335 233.076C80.4688 231.875 78.7012 230.983 78.0479 229.199C77.795 228.511 76.5333 229.099 76.6818 227.92C76.7345 227.5 75.383 227.81 75.6457 226.826C74.4211 226.459 73.9289 225.366 73.1575 224.504C72.5188 223.788 71.6858 223.135 70.8529 222.559C70.1595 222.078 69.4877 221.566 68.8138 221.057C68.2035 220.597 67.642 220.057 66.9858 219.678C66.4262 219.356 65.4702 219.383 65.2173 218.947C64.8774 218.362 64.5103 217.961 63.7203 217.836C64.064 217.26 64.273 216.908 64.4839 216.555C63.9458 215.454 63.4341 214.352 64.7798 213.256L67.5756 213.256C68.7621 211.15 69.7982 208.948 72.4807 207.961C73.3655 208.039 74.6193 207.609 75.6545 208.46C78.1231 207.224 80.2129 208.297 82.2715 209.488C84.7489 210.92 86.8641 212.8 88.8123 215.004C90.7565 213.708 92.568 212.354 94.5201 211.249C95.8628 210.49 97.3276 209.65 98.8637 209.608C100.455 209.565 102.117 209.064 103.731 210.013C104.453 210.437 105.5 210.03 106.452 210.505C107.025 210.79 107.66 210.967 108.209 211.407C108.505 211.644 109 211.633 109.785 211.829C110.192 212.267 110.741 213.367 111.538 213.596C112.696 213.928 112.255 215.41 113.609 215.389C113.319 215.772 113.19 215.942 112.99 216.206C113.172 216.82 113.377 217.513 113.59 218.237C113.09 218.5 112.671 218.722 112.161 218.99C111.201 218.46 110.152 217.881 108.947 217.215C109.077 218.531 109.179 219.548 109.265 220.416C108.91 220.771 108.723 220.959 108.514 221.168C107.817 220.813 107.112 220.454 106.181 219.982C106.095 220.817 106.029 221.465 105.947 222.269C105.005 222.07 104.061 221.873 103.132 221.679C102.829 221.339 102.501 220.972 102.163 220.594C101.924 220.833 101.796 220.932 101.809 220.953C102.001 221.301 102.211 221.64 102.461 222.053C102.088 222.192 101.859 222.279 101.562 222.392C101.18 221.638 100.817 220.921 100.404 220.104C100.277 220.483 100.176 220.783 99.9906 221.34C99.3549 220.705 98.7905 220.142 98.0532 219.407C97.314 220.344 96.6577 221.174 95.9546 222.064C95.7056 223.374 96.2583 224.427 97.1489 225.457C99.2065 227.841 101.002 230.461 103.071 232.809C105.189 235.214 107.264 237.771 110.102 239.483C110.766 239.883 111.246 240.586 111.85 241.191L111.85 243.994C111.655 244.147 111.32 244.411 110.977 244.684C110.103 244.377 109.202 244.063 108.032 243.653C108.266 244.502 108.455 245.192 108.702 246.089C108.458 246.231 108.078 246.451 107.425 246.828Z" fill="#D9D2C1"/>
<path fill-rule="evenodd" clip-rule="evenodd" d="M51.3377 77.82C51.0701 76.9557 50.8494 76.2458 50.5652 75.3278C51.0447 75.5515 51.3611 75.6989 51.7625 75.8854C52.6833 75.2741 53.5075 74.5827 53.3249 73.3181C53.698 73.2205 53.9382 73.158 54.2722 73.0701L54.2722 70.87C54.4919 70.6502 54.5964 70.4598 54.7468 70.41C55.7624 70.0731 56.9693 70.0018 57.7662 69.3905C58.7906 68.6034 59.7954 68.995 60.7876 68.9589C61.5932 68.9286 62.4184 69.2538 63.227 69.452C66.1175 70.163 68.8665 71.2625 71.4806 72.6629C73.088 73.5252 74.6534 74.491 76.1387 75.5495C77.5898 76.5837 78.915 77.7955 80.3397 78.9645C80.5429 78.6471 80.7792 78.2994 80.993 77.9381C83.0594 74.4451 85.6609 71.3856 88.5455 68.5488C89.9068 67.2099 91.7339 67.2021 93.4155 66.8115C94.0883 66.6543 94.8295 66.7861 95.5395 66.7861C96.9047 67.5019 97.0199 68.9442 97.5765 70.3436C96.7465 70.8153 95.893 71.2996 94.933 71.8465C95.0034 71.9422 95.1254 72.1082 95.3451 72.4061C95.1635 72.5887 94.9887 72.9099 94.7319 72.9998C93.1489 73.5564 92.3433 74.8493 91.6578 76.2233C90.2603 79.0191 88.9176 81.8403 87.4596 84.8422C88.2018 85.5443 89.3404 86.2465 89.9098 87.266C90.4351 88.2054 91.938 88.2542 91.7935 89.719C92.0503 89.51 92.229 89.3645 92.4946 89.1477C92.8091 89.5969 93.1274 90.052 93.5708 90.6858C94.0122 90.886 94.685 91.1916 95.3442 91.4904C95.3705 91.9436 95.3949 92.3644 95.4301 92.9709C95.7621 92.7131 95.935 92.5783 96.2045 92.3693C96.3695 93.5002 97.5404 93.5753 98.1693 94.2872C98.8343 95.0392 99.7474 95.5714 100.661 96.2842C100.545 96.4424 100.424 96.6075 100.193 96.9219C100.519 97.0606 100.826 97.1905 101.212 97.3535C101.057 97.5459 100.914 97.7237 100.655 98.044C102.525 98.3926 104.025 99.4531 105.373 100.58C106.764 101.741 108.36 102.785 109.291 104.685C109.095 104.924 108.832 105.243 108.535 105.604C107.093 104.853 105.663 104.126 104.91 102.587L102.78 102.587C102.869 102.951 102.853 103.321 102.995 103.398C103.57 103.707 104.194 103.925 104.488 104.047C105.531 105.312 106.383 106.346 107.457 107.651C106.462 107.725 105.813 107.772 105.19 107.819C105.026 107.422 104.902 107.119 104.772 106.801C104.657 106.883 104.437 106.985 104.448 107.04C104.581 107.686 104.749 108.326 104.943 109.112C104.551 109.335 104.073 109.606 103.593 109.88C103.43 109.733 103.237 109.558 103.028 109.37C102.256 109.481 101.575 110.409 100.692 109.691C100.88 109.482 101.048 109.297 101.221 109.107C101.056 109.019 100.881 108.848 100.771 108.883C100.458 108.981 100.172 109.164 99.7679 109.369C98.4154 109.222 97.517 108.141 96.6039 107.138C95.7397 106.189 94.9809 105.145 94.0014 103.925C93.7134 104.427 93.4614 104.863 93.1782 105.354C92.5894 105.048 92.2339 104.862 91.8609 104.667C91.7349 104.78 91.5494 104.95 91.2584 105.214C91.1656 104.635 91.0865 104.146 90.9722 103.446C90.4869 103.637 90.0738 103.8 89.5943 103.988L89.5943 102.215C88.9196 101.886 88.3307 101.599 87.7702 101.325C87.4968 101.579 87.3053 101.757 87.03 102.013C86.9294 101.469 86.8386 100.981 86.7058 100.272C86.2526 100.444 85.8445 100.601 85.3591 100.786C85.2917 100.331 85.2195 99.8408 85.1257 99.2021C84.6199 99.3896 84.2097 99.542 83.5301 99.7939C83.7996 99.1006 83.9959 98.5957 84.2322 97.9863C83.6853 97.6992 83.1268 97.4063 82.5838 97.1211C82.3905 97.2227 82.1786 97.2627 82.1131 97.3828C81.9979 97.5948 82.0194 97.8809 81.9022 98.0908C81.4471 98.9062 80.3925 99.0967 79.9403 99.8984C79.4521 100.763 78.6142 101.139 77.8681 101.689C77.1963 102.185 76.6299 102.554 75.7793 102.498C75.4883 102.478 75.1797 102.738 74.8155 102.899C74.5762 102.759 74.2354 102.557 73.7686 102.283C73.6856 101.563 72.7218 101.04 73.2306 99.7265C74.1202 97.4326 74.9171 95.045 75.2168 92.5539C75.2334 92.4152 75.4541 92.301 75.6807 92.0744C74.8594 91.3459 74.044 90.6223 73.0196 89.7141C72.923 89.7024 72.504 89.6536 72.0519 89.5999C71.9718 89.0901 71.8947 88.6019 71.7755 87.8431C71.0724 88.3441 70.5471 88.7181 69.7639 89.2757C69.9485 88.6458 70.0705 88.2259 70.2268 87.6927C70.0959 87.5824 69.8313 87.3587 69.5442 87.1156C68.6917 87.4242 68.1702 87.1761 67.6028 86.1771C66.5286 85.8783 65.4964 85.5912 64.6351 85.352C64.4691 84.9008 64.3764 84.6489 64.2562 84.3237L63.6733 84.9067C63.0639 84.1108 62.5707 83.1977 61.8305 82.5806C61.1636 82.023 60.2261 81.7905 59.2808 81.357C59.2164 81.3989 58.9546 81.5737 58.5396 81.8511C57.9351 81.2642 57.3414 80.688 56.7711 80.1334C56.5016 80.3492 56.3034 80.5084 55.9596 80.7837C55.5124 80.3921 55.0729 80.0074 54.5837 79.5787L53.031 79.5787C52.4255 78.9498 51.8113 78.3121 51.3377 77.82Z" fill="#D9D2C1"/>
<path fill-rule="evenodd" clip-rule="evenodd" d="M40.7228 143.313C39.2345 144.544 39.2316 144.545 40.0568 146.038C39.5802 146.08 39.1652 146.065 38.7824 146.168C38.5109 146.241 38.2814 146.471 38.051 146.62C37.8605 146.43 37.7355 146.304 37.5754 146.144C37.4016 146.516 37.2346 146.872 36.9621 147.454C36.0999 146.848 35.2874 146.277 34.4739 145.707C33.1517 146.442 32.9173 144.886 32.2093 144.663C31.1156 144.318 30.8803 142.988 29.7114 142.95C28.3481 142.906 28.1802 141.508 27.3862 140.9C26.6958 140.373 26.2447 139.435 25.3638 139.314C25.0045 139.524 24.7203 139.69 24.2526 139.963C23.8073 139.175 23.4176 138.488 23.028 137.8L22.2428 136.139C21.6472 135.634 21.0515 135.129 20.2566 134.454L19.7341 134.454C18.4851 132.754 17.3162 131.166 15.9608 129.323C15.6923 129.85 15.5292 130.169 15.2587 130.698C14.2343 129.966 13.1972 129.225 12.083 128.428C11.3858 130.474 10.7285 132.399 10.0508 134.384C9.65631 134.188 9.32331 134.022 8.87216 133.797C8.55673 134.682 8.26182 135.509 7.92492 136.453L6.76675 136.453C6.22087 137.047 5.74335 137.567 5.24727 138.106C4.62131 138.14 4.02367 138.17 3.4524 138.2L2.48758 139.166L0.448584 136.716C-0.193975 136.139 -0.0748419 135.537 0.353858 134.891C0.483737 134.694 0.557955 134.419 0.553073 134.181C0.492526 131.431 1.53937 128.946 2.45438 126.444C3.12819 124.598 3.99047 122.822 4.81466 120.908C4.29417 120.385 3.89965 119.572 2.82547 119.467C2.56375 118.362 2.29423 117.228 2.04326 116.168C2.59695 115.621 3.03835 115.184 3.4817 114.747C3.66528 114.913 3.85473 115.085 4.135 115.339C4.68381 115.075 5.27461 114.791 5.62616 114.621C5.49921 113.798 5.38593 113.069 5.27656 112.358C6.05388 111.965 6.75601 111.611 7.47376 111.249C7.29701 111.072 7.17202 110.947 7.12612 110.901C7.72473 110.312 8.32725 109.719 9.15926 108.898C11.0069 109.153 13.1289 107.971 15.4227 108.288C15.9032 108.355 16.5985 107.987 16.9618 107.6C18.4363 106.028 20.5671 105.961 22.3805 105.223C23.0729 104.94 23.9518 104.64 24.7887 104.615C26.1177 104.574 27.4829 104.419 28.7739 104.646C30.8158 105.006 32.9935 105.393 33.7972 107.77C34.0628 108.557 34.0921 109.422 34.264 110.458L30.1108 110.458C30.6908 111.359 31.0795 111.963 31.6596 112.863C31.2924 112.988 30.8549 113.138 30.4174 113.287C30.519 113.421 30.6205 113.554 30.7221 113.688L28.272 113.688C28.5044 114.146 28.6723 114.477 28.8315 114.79C27.8433 115.92 26.5777 115.89 25.276 115.734C25.1422 116.112 25.0338 116.42 24.859 116.913C24.2887 116.703 23.7223 116.493 23.0377 116.239C23.0934 116.547 23.0768 116.701 23.1461 116.787C23.3102 116.994 23.6032 117.136 23.6891 117.363C24.5533 119.637 26.9712 120.782 27.812 123.065C29.4653 123.524 29.8178 125.267 30.932 126.285C32.0902 127.345 32.8441 128.84 33.8099 130.118C34.7454 131.356 36.3215 132.053 36.8166 133.667C38.7472 134.728 40.2101 136.254 41.3018 138.153C42.6094 138.087 42.7715 139.886 44.1504 139.844L44.1504 142.245C43.9795 142.417 43.7285 142.668 43.4776 142.919C42.9053 141.769 41.795 141.349 40.6212 140.614C40.2921 142.205 42.2286 143.121 41.335 144.62C41.1319 144.186 40.9659 143.832 40.7228 143.313Z" fill="#D9D2C1"/>
<path fill-rule="evenodd" clip-rule="evenodd" d="M68.8721 137.137C70.1172 137.013 70.2539 138.765 71.4141 137.935C71.2246 137.723 71.0576 137.534 70.8906 137.346C70.9541 137.283 71.0098 137.175 71.0801 137.164C72.3847 136.967 73.622 137.046 74.6854 137.972C75.8534 138.99 77.0311 140 78.2342 140.977C78.614 141.285 79.0896 141.476 79.6247 141.779C80.8815 141.297 82.1842 140.636 83.4791 140.062C84.8697 139.446 86.3775 139.459 87.7534 138.789C88.4838 138.433 89.766 139.363 90.6605 139.145C91.6615 138.9 92.513 138.309 93.4564 139.172C96.0949 139.19 97.7394 140.984 99.5714 142.553L99.5714 146.989C99.3253 147.249 99.0812 147.506 98.6876 147.922C97.8273 147.247 96.967 146.571 96.0149 145.824C95.8371 145.907 95.4124 146.107 94.843 146.375C94.843 146.625 94.6995 147.104 94.8684 147.274C95.5959 148.016 95.302 148.872 95.3879 149.652C94.7639 149.94 94.2425 150.181 93.6634 150.448C93.1634 150.048 92.6468 149.635 91.8646 149.008C91.7435 149.956 91.6625 150.592 91.556 151.428L89.0034 151.428C88.9448 153.226 91.1234 153.424 91.1146 154.938C92.1615 155.626 92.89 156.629 93.7249 157.532C94.6868 158.574 95.7063 159.565 96.7307 160.547C97.675 161.452 98.6154 162.37 99.6349 163.182C100.686 164.018 101.83 164.737 102.523 165.22C102.918 166.321 103.141 166.941 103.416 167.71C103.058 167.962 102.693 168.375 102.255 168.481C101.918 168.562 101.47 168.293 101.106 168.113C100.691 167.907 100.316 167.624 99.588 167.627C99.9151 168.404 100.243 169.18 100.604 170.034C99.715 170.491 98.7638 170.979 97.3215 171.719C97.3517 171.719 96.8273 171.676 96.3147 171.734C95.9162 171.779 95.5315 171.947 95.0208 172.097C94.8372 171.991 94.4973 171.798 94.1829 171.619C93.8929 171.888 93.7005 172.067 93.5296 172.226C91.059 170.683 88.5014 169.294 86.1099 167.602C84.1021 166.181 83.9615 166.38 83.3932 165.339C83.2086 165.505 83.0231 165.673 82.8737 165.808C80.5124 163.701 78.1697 161.611 75.7918 159.49L74.9081 159.49C73.8466 161.156 72.8203 162.768 71.747 164.454C71.2685 164.209 70.9756 164.06 70.5215 163.83C69.9737 164.467 68.92 164.896 69.3086 166.13C68.7716 166.401 68.3331 166.621 67.9015 166.838C67.6847 166.683 67.4161 166.49 67.048 166.225C66.379 166.893 65.7785 167.493 65.1291 168.141C64.4934 167.894 63.9514 167.684 63.3508 167.451C63.0579 167.621 62.7043 167.827 62.3792 168.016C62.177 167.922 61.968 167.893 61.8909 167.777C61.72 167.515 61.6868 167.13 61.47 166.939C60.1771 165.793 60.1048 165.588 60.597 164.148C61.2347 162.283 61.6097 160.277 62.5403 158.573C63.7863 156.29 65.4562 154.238 67.088 151.88C66.3556 150.89 65.3508 149.778 64.2072 148.708C63.1008 147.673 62.2239 146.309 61.6595 144.412C62.2112 144.746 62.4368 144.883 62.929 145.179C62.7073 143.99 62.5217 142.993 62.3362 141.997L62.679 141.826C63.1467 142.426 63.6135 143.025 64.0803 143.624L65.007 142.697L65.007 140.879C65.6154 140.637 66.297 140.367 67.0978 140.049L67.0978 137.842C67.8624 137.538 68.5479 137.266 68.8721 137.137Z" fill="#D9D2C1"/>
<path fill-rule="evenodd" clip-rule="evenodd" d="M121.127 148.688C120.909 147.774 120.715 146.969 120.443 145.832C121.305 144.665 122.379 143.27 123.387 141.829C124.589 140.111 126.12 138.619 126.967 136.658C127.163 136.204 127.305 135.728 127.532 135.097C128.677 134.332 130.804 134.243 130.57 132C131.497 130.986 133.109 130.862 133.265 129.378C134.092 128.893 135.038 128.586 135.629 127.949C138.329 125.038 141.572 122.931 145.485 121.12C146.693 120.963 148.303 120.962 149.919 120.701C152.462 120.291 154.647 121.646 156.057 123.849C156.446 124.458 157.3 124.771 157.209 125.782C157.146 126.485 157.52 127.227 157.749 128.161C157.503 128.437 157.178 128.803 156.768 129.265C155.507 128.514 154.711 127.094 153.018 126.987C152.461 128.658 154.317 129.407 154.531 131.088C154.347 131.293 154.023 131.658 153.716 131.999C152.823 131.404 152.221 131.002 151.113 130.263C151.476 131.412 151.482 132.23 151.879 132.532C152.885 133.294 153.289 134.528 154.408 135.243C155.45 135.91 156.226 137.004 156.953 138.122C157.979 139.703 159.454 140.984 160.648 142.467C162.402 144.645 164.323 146.687 165.781 149.114C166.357 150.074 167.358 150.784 168.193 151.581C168.953 152.305 169.285 153.457 170.418 153.684L170.418 157.266L168.107 157.266C168.008 157.167 167.664 156.823 167.249 156.409C167.334 156.883 167.401 157.357 167.507 157.822C167.614 158.294 167.759 158.759 167.955 159.476C166.235 159.367 164.713 159.45 163.604 160.692C163.251 160.43 163.05 160.281 162.643 159.98C162.434 160.359 162.194 160.798 161.745 161.616C161.515 160.774 161.437 160.488 161.329 160.097C160.99 160.246 160.672 160.445 160.327 160.517C159.988 160.59 159.621 160.534 159.273 160.534C157.917 159.546 156.562 158.558 155.074 157.473C155.051 157.274 155.005 156.854 154.938 156.237C154.68 156.424 154.519 156.54 154.31 156.691C153.929 156.532 153.506 156.355 153.036 156.157C153.149 153.813 150.734 153.797 149.794 152.347C149.39 152.654 149.19 152.806 149.098 152.876C148.133 151.912 147.161 150.939 146.179 149.957C146.107 150.036 146.221 149.91 146.173 149.965C145.736 149.527 145.285 149.076 144.833 148.625C144.947 148.478 145.06 148.333 145.175 148.186L143.772 148.186C144.027 147.877 144.176 147.697 144.507 147.294C143.909 147.383 143.512 147.442 142.953 147.525C142.092 146.86 141.056 146.06 139.933 145.194C140.218 144.805 140.414 144.539 140.588 144.303C139.467 143.344 138.317 142.36 137.157 141.368C136.967 141.75 136.792 142.103 136.537 142.616C135.931 142.138 135.409 141.727 134.92 141.341C134.704 141.403 134.505 141.403 134.394 141.502C132.575 143.124 130.949 145.048 128.912 146.312C126.619 147.737 124.25 149.517 121.127 148.688Z" fill="#D9D2C1"/>
<path fill-rule="evenodd" clip-rule="evenodd" d="M159.632 185.641C159.796 185.805 159.922 185.931 160.052 186.061C160.175 185.965 160.317 185.884 160.421 185.77C161.051 185.079 161.591 184.207 162.208 183.648C162.812 183.101 163.272 182.487 163.825 181.933C164.56 181.195 165.613 180.373 166.559 180.334C168.252 180.265 169.95 180.162 171.725 180.565C174.788 181.259 177.107 182.863 179.223 184.988C181.91 187.685 184.605 190.374 187.435 193.204C188.36 192.13 190.106 192.075 190.446 190.374C191.835 189.659 193.225 188.947 194.615 188.232C195.897 187.573 197.281 187.691 198.651 187.698C199.626 187.704 200.602 187.7 201.577 187.7C202.723 188.598 203.868 189.495 204.993 190.378L204.993 194.814C203.779 194.103 202.741 193.495 201.722 192.898C200.53 194.539 203.111 195.141 202.324 196.583C201.093 197.482 200.513 195.808 199.321 195.278C199.567 196.301 199.71 196.896 199.885 197.624C198.619 198.055 197.512 197.839 196.323 197.159C196.181 197.522 196.07 197.808 195.903 198.24C195.573 198.547 195.525 197.909 195.038 197.8C194.384 198.228 193.587 198.749 192.602 199.392C197.213 203.787 200.304 209.39 205.57 212.817L205.57 215.488C204.691 215.282 203.924 215.103 202.874 214.857C203.136 215.599 203.337 216.17 203.613 216.953L201.547 216.953C201.435 217.381 201.372 217.621 201.309 217.861C201.159 217.929 201.014 218.034 200.859 218.053C200.597 218.085 200.319 218.018 200.063 218.068C197.297 218.61 195.103 217.233 193.031 215.788C190.789 214.226 188.721 212.411 186.416 210.577C184.844 211.886 184.081 213.979 182.614 215.82C182.372 215.855 181.964 215.91 181.494 215.976C180.884 216.464 180.293 217.253 179.535 217.477C177.874 217.967 176.327 219.18 174.183 218.355C174.091 218.154 173.873 217.711 173.68 217.257C173.487 216.804 173.321 216.342 173.121 215.827C173.838 215.122 173.61 213.529 175.006 213.743C175.476 212.117 175.89 210.687 176.291 209.3C176.843 208.983 177.343 208.695 177.908 208.369L177.908 205.428C178.225 205.354 178.466 205.296 178.763 205.226C179.599 204.138 178.614 203.224 178.444 202.588C177.436 201.719 176.665 201.054 175.814 200.319C175.975 200.108 176.103 199.939 176.325 199.646C175.881 199.332 175.402 198.993 174.819 198.58C174.891 198.525 174.718 198.659 174.462 198.857C174.152 197.623 172.912 197.515 171.892 196.972C172.154 196.546 172.327 196.265 172.592 195.836C172.133 195.762 171.684 195.691 171.152 195.605C171.103 195.422 171.038 195.182 170.922 194.755C169.843 194.64 168.528 194.487 168.887 192.887C168.191 192.35 167.543 191.45 167.004 191.512C165.384 191.695 164.61 190.339 163.343 189.969C161.743 189.794 161.744 189.818 160.674 190.315C159.75 189.156 159.128 187.848 158.745 186.345C158.993 186.148 159.268 185.929 159.632 185.641Z" fill="#D9D2C1"/>
<path fill-rule="evenodd" clip-rule="evenodd" d="M189.72 29.8922C189.638 29.2291 189.588 28.8297 189.526 28.3258C189.186 28.6324 188.994 28.8072 188.684 29.0865C187.455 28.4254 186.717 27.1725 185.642 26.3229L185.226 26.7389C184.695 26.0622 184.164 25.3845 183.712 24.8083C182.873 24.49 181.926 25.1697 181.407 24.0496C180.742 25.0417 180.148 25.9489 179.533 26.8405C177.601 29.6363 175.944 32.6265 173.343 34.9311C171.854 36.2513 170.414 37.4945 168.276 37.5179C167.915 37.5218 167.56 37.888 167.031 38.18C166.523 37.3763 166.047 36.6234 165.45 35.6801C168.565 30.3648 171.34 24.8699 175.407 19.83C175.201 19.4687 175.027 18.6796 174.622 18.5341C173.017 17.957 171.89 16.8262 170.74 15.6748C170.6 15.5342 170.267 15.5869 170.021 15.5489C169.966 15.0557 169.921 14.6368 169.851 13.9971C169.43 14.1202 169.072 14.2247 168.446 14.4073C167.588 13.3819 166.311 12.6163 164.725 12.213C163.804 11.9786 163.049 11.0959 161.937 10.3049L156.15 10.3049C156.118 9.80098 156.091 9.38107 156.061 8.9055C155.773 8.80296 155.464 8.69359 155.094 8.56273L155.094 6.72685C155.926 6.43975 156.78 6.14581 157.763 5.80598C157.539 5.29525 157.315 4.7855 157.048 4.1781C157.435 4.0531 157.738 3.95447 158.041 3.85584C158.103 3.70546 158.242 3.53945 158.216 3.40371C158.002 2.27679 158.956 1.50533 159.562 1.36666C162.031 0.801249 164.472 -0.796358 167.122 0.737775C169.747 0.766095 171.75 2.39593 174.033 3.31973C174.778 3.62148 174.647 4.91831 175.934 4.56676C176.464 4.42223 177.303 5.38314 177.991 5.85578C178.615 6.28448 179.263 6.68779 179.832 7.18094C180.501 7.76002 181.061 8.46508 181.733 9.03928C182.294 9.51681 182.947 9.88496 183.634 10.3527C186.065 7.11649 189.518 5.13706 192.738 2.86857C195.853 2.14105 198.878 0.884256 202.525 1.37448C203.386 2.12348 204.487 3.08146 205.67 4.1117C205.436 5.25229 206.143 6.53448 204.954 7.57644C204.034 6.89384 203.121 6.21613 202.198 5.53158C201.999 5.72005 201.812 5.89485 201.628 6.06769C201.329 7.51296 203.433 8.04224 202.945 9.55196C202.51 9.77657 202.073 10.0002 201.62 10.2346C201.322 9.76973 200.981 9.23752 200.623 8.67894C200.281 9.01975 200.03 9.27072 199.779 9.52169C200.56 10.2756 200.569 11.008 199.502 11.8937C198.907 11.8136 198.048 12.2745 197.356 11.3849C197.178 11.754 197.004 12.1154 196.757 12.6319C196.186 12.2072 195.68 11.8302 195.161 11.4445C195.034 11.8038 194.925 12.1124 194.696 12.7579C194.535 12.1642 194.46 11.8829 194.327 11.3908C193.895 11.4425 193.303 11.339 192.972 11.5851C191.601 12.6046 190.309 13.7296 188.843 14.9356C189.439 15.5996 189.882 16.1094 190.342 16.6025C193.059 19.5165 196.317 21.9549 198.24 25.5691C199.241 25.5495 199.171 26.5973 199.707 27.0485C200.314 27.5592 200.872 28.1266 201.264 28.4928L201.264 30.2828C200.07 29.4713 199.395 28.0885 197.674 28.5397C198.364 29.6959 199.038 30.8277 199.86 32.2066C199.071 32.0835 198.464 31.9878 197.774 31.8804C197.531 32.3628 197.166 33.0796 196.778 33.8491C196.366 33.6508 196.024 33.4848 195.622 33.2915C195.564 33.5698 195.514 33.812 195.461 34.0649C195.358 34.0913 195.181 34.1928 195.116 34.144C194.241 33.4956 193.467 32.6274 192.497 32.2144C191.281 31.6968 190.733 30.5552 189.72 29.8922Z" fill="#D9D2C1"/>
<path fill-rule="evenodd" clip-rule="evenodd" d="M162.538 78.506C165.141 80.628 167.305 82.4199 169.499 84.1747C171.577 85.8368 173.821 87.2577 176.121 88.5496C176.325 88.3846 176.523 88.2244 176.86 87.95C177.372 88.4012 177.88 88.8475 178.418 89.3211L178.418 91.0759C177.762 91.7321 176.825 92.2604 176.586 93.0114C176.295 93.9284 175.562 94.0582 175.014 94.4283C173.116 95.7115 171.191 96.6041 168.718 95.6178C167.198 95.0113 165.676 94.3971 164.163 93.7662C163.706 93.5768 163.229 93.4381 162.535 93.1969L161.189 91.8522L159.513 91.8522C157.606 90.7995 156.016 89.9236 154.278 88.9646C153.378 90.2898 152.51 91.5105 151.699 92.7682C150.093 95.2603 148.098 97.3218 145.356 98.5532C144.767 98.8179 144.111 98.9389 143.191 99.2143C142.981 99.1196 142.464 98.8882 141.898 98.6323C141.642 98.0835 141.365 97.4907 141.151 97.0279C141.583 95.7759 141.906 94.6686 142.347 93.61C142.786 92.5505 143.343 91.5397 143.848 90.5076C145.39 90.3318 144.767 88.574 145.815 87.8504C146.677 87.2567 147.035 85.9364 147.71 84.7782C144.169 81.3076 140.301 78.2511 136.227 75.4465C135.914 75.2307 135.406 75.3 134.989 75.2375C134.047 74.0149 134.191 72.8059 135.046 71.5931L135.893 71.5931C136.837 70.017 137.722 68.5395 138.691 66.9233C139.597 66.1499 141.021 66.5434 142.122 66.0395C143.349 65.478 144.536 65.9526 145.438 65.7397C149.365 67.5014 152.804 69.5863 155.772 72.5716L157.585 72.5716C158.787 70.846 160.661 69.7738 162.499 68.6879C163.115 68.3237 163.919 68.267 164.644 68.1C166.119 67.7612 167.545 67.2543 169.112 67.2993C172.108 67.3862 174.245 69.0873 175.32 71.9476C175.998 73.7512 175.657 75.5031 175.848 77.4425C173.687 76.3986 173.871 73.8977 172.06 72.4358C172.171 74.9572 174.546 76.4933 174.093 79.0645C173.487 78.9649 172.881 78.8653 172.242 78.7599C172.076 79.2315 171.831 79.9239 171.595 80.5899L168.213 80.5899C167.017 79.9044 165.824 79.1515 164.562 78.5372C164.157 78.339 163.573 78.506 162.538 78.506Z" fill="#D9D2C1"/>
<path fill-rule="evenodd" clip-rule="evenodd" d="M195.688 123.508C194.438 122.511 193.296 121.601 192.034 120.594L188.617 120.594C188.241 119.657 187.874 118.746 187.461 117.717C188.643 116.5 190.21 116.007 191.691 115.617C191.497 115.096 191.326 114.635 191.072 113.95C191.845 113.413 192.527 112.76 193.34 112.407C195.774 111.353 198.374 111.437 200.82 111.552C201.828 111.994 202.728 112.389 203.852 112.881C203.963 112.145 203.86 111.492 204.133 111.222C205.873 109.501 207.642 107.803 209.51 106.226C210.518 105.376 211.658 104.48 212.885 104.141C214.682 103.647 216.612 103.635 218.618 103.402C219.758 104.212 221.093 104.872 222.013 105.901C222.858 106.847 223.257 108.193 224 109.652C223.632 109.992 223.275 110.323 222.913 110.657C222.726 110.462 220.221 107.862 220.221 107.862C220.032 108.049 219.844 108.238 219.568 108.515C220.436 109.705 221.571 110.891 220.822 112.826C220.164 112.346 219.652 111.972 218.753 111.315C219.1 112.203 219.292 112.699 219.56 113.387C219.071 113.711 218.547 114.059 217.91 114.481C217.175 113.746 216.598 113.169 215.901 112.473C215.809 112.922 215.758 113.164 215.675 113.567C214.658 112.963 213.25 113.304 212.731 111.748C210.831 113.292 209.785 115.011 208.626 116.755C213.494 122.626 218.257 128.369 223.083 134.189L223.083 136.758C222.181 136.308 221.461 135.951 220.733 135.588C220.144 136.36 220.805 136.97 221.102 137.654C219.259 139.628 216.958 140.093 214.392 139.687C213.339 138.867 212.258 138.024 211.155 137.164C211.104 137.219 210.985 137.347 210.66 137.699C210.599 137.225 210.54 136.769 210.482 136.312C210.29 136.491 210.098 136.669 209.906 136.848L209.906 135.857C206.471 134.032 204.134 130.947 201.006 128.688C199.281 131.784 197.998 135.248 196.046 138.523C195.554 138.622 194.995 138.735 194.335 138.867C194.761 139.269 195.08 139.571 195.388 139.862C195.21 141.18 193.694 141.153 193.14 142.259C192.653 143.228 191.362 143.793 190.415 144.547L187.253 144.547C186.997 144.291 186.746 144.04 186.395 143.689C186.688 140.947 188.25 138.679 189.514 136.182C189.468 136.131 189.3 135.946 189.227 135.865C189.658 134.118 191.533 133.076 191.253 131.06C192.461 130.121 192.555 128.576 193.267 127.371C193.985 126.153 194.766 124.973 195.688 123.508Z" fill="#D9D2C1"/>
<path fill-rule="evenodd" clip-rule="evenodd" d="M153.14 201.064C152.829 201.614 152.585 202.046 152.227 202.681C151.36 202.536 150.486 202.39 149.409 202.211C148.634 202.658 147.453 203.032 146.977 204.386C147.823 204.992 148.79 205.365 149.263 206.531C149.596 207.351 150.763 207.832 151.561 208.46C152.439 209.151 153.038 210.109 154.108 210.653C155.007 211.11 155.622 212.093 156.46 212.713C157.326 213.353 158.308 213.837 159.237 214.389L159.237 217.391C158.396 217.549 157.564 217.808 156.694 216.817C156.655 217.673 156.625 218.335 156.598 218.94C155.356 219.211 154.231 219.455 153.131 219.695C152.962 219.264 152.843 218.958 152.702 218.598C152.458 218.636 152.203 218.63 151.987 218.717C150.154 219.459 149.525 219.338 148.11 217.911C147.52 217.315 146.602 217.066 146.029 217.308C145.128 217.689 145.475 216.546 144.644 217.086C145.116 216.514 145.264 216.334 145.52 216.023L144.037 216.023C143.928 215.461 143.835 214.975 143.725 214.396L142.269 214.396C141.559 213.715 141.057 213.234 140.639 212.834C139.73 213.763 138.892 214.619 138.194 215.331L136.188 215.331C135.614 215.905 135.013 216.506 134.396 217.121C134.056 216.93 133.843 216.808 133.467 216.594C132.9 216.873 132.203 217.216 131.304 217.658C130.231 217.144 129.047 216.577 127.922 216.038L127.922 213.818C129.401 211.233 130.838 208.726 132.269 206.226C131.585 205.782 131.04 205.43 130.578 205.131C130.803 204.67 130.976 204.315 131.274 203.703L128.796 203.703C129.098 202.893 129.309 202.327 129.703 201.266C129.105 201.703 128.942 201.824 128.628 202.054C128.169 201.566 127.684 201.049 126.916 200.232C127.907 200.068 128.528 199.965 129.212 199.853C129.341 200.227 129.445 200.53 129.579 200.914C129.779 200.953 130.021 200.998 130.317 201.054C130.434 200.717 130.54 200.408 130.647 200.097C131.118 200.211 131.593 200.328 132.397 200.525C131.945 200.032 131.77 199.841 131.667 199.728C131.88 198.594 132.08 197.522 132.291 196.392C132.625 196.218 133.06 195.993 133.57 195.726C134.349 195.927 135.234 196.156 136.136 196.387C136.051 196.908 135.94 197.569 135.831 198.23C135.928 198.257 136.026 198.284 136.125 198.312C136.471 197.622 136.818 196.932 137.124 196.324C137.86 196.68 138.593 197.035 139.357 197.404C142.333 195.652 145.141 193.743 148.373 192.664C150.6 192.016 152.8 192.783 154.991 193.103C156.695 193.352 157.9 194.761 158.763 196.303C158.886 196.523 159.027 196.731 159.246 197.083L159.246 199.731C158.828 200.149 158.451 200.525 158.187 200.789C157.665 200.268 157.136 199.738 156.822 199.423L155.184 199.423C155.336 200.01 155.482 200.574 155.649 201.218C155.333 201.556 155.043 201.866 154.642 202.295C154.091 201.844 153.637 201.472 153.14 201.064Z" fill="#D9D2C1"/>
<path fill-rule="evenodd" clip-rule="evenodd" d="M125.788 40.9042C125.487 41.205 125.236 41.4559 124.881 41.8114C123.485 40.1796 122.099 38.5566 120.711 36.9346C120.617 36.9707 120.524 37.0078 120.431 37.0449C120.531 37.3896 120.54 37.8105 120.751 38.0615C121.144 38.5302 121.652 38.8994 121.779 39.5429C122.421 40.6806 123.064 41.8182 123.689 42.9246C122.908 43.8894 122.292 43.1854 121.346 42.7703C121.585 43.4022 121.74 43.8113 121.908 44.2517C121.716 44.4441 121.465 44.6951 121.213 44.947C120.15 44.948 119.085 44.948 118.008 44.948C117.705 44.6375 117.395 44.3211 117.069 43.9861C116.946 44.0349 116.776 44.0476 116.709 44.1385C116.255 44.7439 115.795 45.3484 115.391 45.987C114.957 46.6735 114.832 47.6344 113.722 47.6608C113.594 47.6637 113.45 47.8805 113.349 48.0231C112.963 48.5709 112.671 49.2125 112.194 49.6588C111.718 50.1041 111.063 50.357 110.293 50.8072C109.843 50.8072 109.133 50.8072 108.424 50.8062C107.985 50.3658 107.545 49.9273 107.178 49.5602C108.378 46.2019 109.564 42.8826 110.749 39.5644C110.356 38.8271 109.933 38.0332 109.51 37.2383C109.564 37.2051 109.618 37.1719 109.671 37.1387C108.982 36.4483 108.292 35.7578 107.41 34.876C107.2 34.8633 106.788 34.838 106.262 34.8057C104.918 33.4073 103.508 31.9435 102.372 30.7629C100.533 30.1701 98.6444 30.4709 98.2567 28.0208C99.0672 27.514 99.1971 25.6937 101.087 26.1087C101.232 25.6048 101.413 24.9857 101.608 24.3109C101.506 24.1586 101.322 23.8842 101.179 23.6703C101.904 22.9848 102.539 22.3862 103.46 21.5161C105.121 21.3218 107.247 21.0727 109.484 20.811C111.875 23.0229 114.232 25.2025 116.733 27.5149C117.299 26.6107 117.773 25.6781 118.412 24.8793C119.074 24.0531 119.899 23.3569 120.673 22.5825C121.363 22.7963 122.068 23.0141 122.828 23.2485C122.977 22.8149 123.083 22.5053 123.216 22.1206L125.015 22.1206C125.164 22.269 125.352 22.4575 125.57 22.6752C125.722 23.4369 125.881 24.2367 126.078 25.225C124.602 27.8557 122.987 30.7326 121.418 33.5314C122.485 36.3379 124.947 38.1572 125.788 40.9042Z" fill="#D9D2C1"/>
</svg>
