<svg width="50" height="50" viewBox="0 0 50 50" fill="none" xmlns="http://www.w3.org/2000/svg">
<g clip-path="url(#clip0_1029_842)">
<path fill-rule="evenodd" clip-rule="evenodd" d="M25 0C38.8071 0 50 11.1929 50 25C50 38.8071 38.8071 50 25 50C11.1929 50 0 38.8071 0 25C0 11.1929 11.1929 0 25 0Z" fill="#5865F2"/>
<path d="M35.2471 15.6854C33.3068 14.798 31.2587 14.1683 29.155 13.8122C28.8683 14.3271 28.6087 14.8566 28.377 15.3984C27.258 15.2297 26.128 15.1447 24.9964 15.1443C23.8666 15.1443 22.7311 15.2302 21.6152 15.3963C21.3873 14.8583 21.1226 14.3248 20.8353 13.812C18.7315 14.1714 16.6832 14.8024 14.7419 15.6892C10.8861 21.3931 9.84118 26.9545 10.3636 32.4369C12.6214 34.1045 15.1483 35.3728 17.8345 36.1867C18.437 35.3734 18.9766 34.5077 19.4347 33.6068C18.5606 33.2811 17.717 32.8785 16.9139 32.4039C17.1254 32.2507 17.332 32.0928 17.5316 31.9395C19.8668 33.0361 22.4182 33.6082 24.9997 33.6082C27.5813 33.6082 30.1328 33.0361 32.4679 31.9393C32.67 32.1042 32.8767 32.2621 33.0856 32.4037C32.281 32.8793 31.4359 33.283 30.5603 33.61C31.0201 34.5128 31.5554 35.3751 32.1605 36.1877C34.8492 35.3764 37.3781 34.1082 39.6364 32.4386L39.6358 32.4392C40.2489 26.0814 38.5885 20.5711 35.2471 15.6854ZM20.0955 29.0652C18.6396 29.0652 17.4367 27.7439 17.4367 26.1186C17.4367 24.4931 18.5977 23.1602 20.0909 23.1602C21.584 23.1602 22.7775 24.4931 22.7519 26.1186C22.7264 27.7439 21.5794 29.0652 20.0955 29.0652ZM29.904 29.0652C28.4457 29.0652 27.2475 27.7439 27.2475 26.1186C27.2475 24.4931 28.4086 23.1602 29.904 23.1602C31.3994 23.1602 32.5837 24.4931 32.5581 26.1186C32.5326 27.7439 31.3878 29.0652 29.904 29.0652Z" fill="white"/>
</g>
<defs>
<clipPath id="clip0_1029_842">
<rect width="50" height="50" fill="white"/>
</clipPath>
</defs>
</svg>
