<svg width="106" height="32" viewBox="0 0 106 32" fill="none" xmlns="http://www.w3.org/2000/svg">
<g clip-path="url(#clip0_718_1353)">
<path d="M13.5752 3.18945C15.7167 3.21517 17.483 3.95573 18.921 5.4588C18.9619 5.50872 19.016 5.54617 19.0771 5.5669C19.1382 5.58762 19.2039 5.59079 19.2667 5.57604C21.5852 5.1774 23.6541 5.74398 25.4136 7.28789C26.7881 8.49366 27.5876 10.0376 27.8176 11.8644C27.9415 12.8602 27.8507 13.8711 27.5513 14.8289C27.5329 14.8773 27.5292 14.9301 27.5404 14.9807C27.5517 15.0312 27.5776 15.0773 27.6149 15.1133C28.4635 16.0869 29.0311 17.273 29.2571 18.5446C29.5535 20.1564 29.2963 21.8211 28.5273 23.2683C27.7583 24.7156 26.5227 25.8604 25.021 26.5168C24.6193 26.6923 24.1889 26.8027 23.7691 26.9321C23.7151 26.9413 23.6646 26.9651 23.623 27.0008C23.5815 27.0365 23.5504 27.0828 23.5331 27.1348C22.8999 28.9291 21.7267 30.2703 20.0625 31.172C19.2651 31.5995 18.391 31.8651 17.4906 31.9534C15.3476 32.1765 13.4542 31.5903 11.8271 30.1712C11.6614 30.0267 11.5199 29.8542 11.3528 29.712C11.2811 29.65 11.1879 29.6187 11.0933 29.625C10.2615 29.7785 9.40971 29.7892 8.57433 29.6568C7.55582 29.501 6.58418 29.1227 5.72857 28.5486C3.96832 27.3685 2.90703 25.7218 2.53712 23.643C2.34516 22.5526 2.42308 21.4317 2.76406 20.3782C2.78518 20.3307 2.79142 20.2778 2.78197 20.2267C2.77252 20.1755 2.74782 20.1284 2.71111 20.0915C1.86456 19.1322 1.29618 17.9599 1.06735 16.7011C0.765364 15.1683 0.976158 13.5787 1.66721 12.1776C2.42366 10.6193 3.5848 9.45965 5.16048 8.73724C5.59241 8.53905 6.05763 8.40818 6.51452 8.27127C6.58009 8.2588 6.64101 8.22869 6.69073 8.18417C6.74044 8.13965 6.77708 8.08241 6.79668 8.01862C7.26851 6.66462 8.13867 5.48489 9.29296 4.63427C10.323 3.85574 11.5465 3.37412 12.8309 3.24165C13.1032 3.21215 13.3702 3.20307 13.5752 3.18945ZM16.4807 13.2336L16.6479 13.3311C18.8774 14.6186 21.1074 15.9046 23.3379 17.189C23.7646 17.4334 23.9627 17.7647 23.9605 18.2602C23.9491 20.4009 23.9559 22.5417 23.9559 24.6824V24.9093C24.0172 24.8882 24.0467 24.8791 24.0747 24.8677C25.2759 24.3951 26.267 23.5062 26.8672 22.3634C27.4674 21.2206 27.6367 19.9001 27.3441 18.6429C27.0082 17.2057 26.2321 16.0612 24.9696 15.304C23.0126 14.13 21.0209 13.0059 19.0413 11.8652C19.0117 11.8513 18.9794 11.844 18.9467 11.844C18.9141 11.844 18.8818 11.8513 18.8522 11.8652C18.0677 12.3137 17.2841 12.7729 16.4807 13.2336ZM4.41614 21.5545C4.22551 22.7171 4.37 23.8102 4.89119 24.8314C5.76867 26.5508 7.17415 27.5546 9.09552 27.8186C10.1546 27.9631 11.1863 27.8186 12.1175 27.3005C14.1478 26.1718 16.1517 24.9971 18.1691 23.8443C18.2796 23.7815 18.2856 23.6967 18.2848 23.5924C18.2848 22.7608 18.2848 21.9287 18.2848 21.0961C18.2848 21.0492 18.2796 21.0023 18.275 20.9372C18.1994 20.9796 18.1343 21.0091 18.0761 21.0431C15.8572 22.3215 13.6382 23.6017 11.4193 24.8836C10.9942 25.131 10.6024 25.137 10.1772 24.8836C9.02139 24.2028 7.85646 23.5379 6.69759 22.8669L4.41614 21.5545ZM17.1033 6.32417C15.8241 5.31053 14.4065 4.91113 12.8195 5.14487C11.6734 5.30687 10.6139 5.84581 9.8081 6.67667C8.74907 7.74932 8.24301 9.05722 8.24528 10.5656C8.2483 12.7194 8.2483 14.8728 8.24528 17.0256C8.23901 17.084 8.25108 17.143 8.27982 17.1942C8.30856 17.2454 8.35253 17.2865 8.40564 17.3116C9.11216 17.7117 9.81339 18.121 10.5161 18.5264C10.5736 18.5597 10.6334 18.5877 10.7166 18.6308V18.3819C10.7166 15.81 10.7166 13.2409 10.7166 10.6745C10.7166 10.2274 10.8906 9.91049 11.2817 9.68734C12.5933 8.9377 13.8997 8.17444 15.2084 7.42178L17.1033 6.32417ZM12.0396 14.2616C12.1153 14.2207 12.1667 14.1973 12.2144 14.17C14.4539 12.878 16.6935 11.585 18.9331 10.291C19.3257 10.064 19.6979 10.064 20.092 10.291C21.9488 11.3682 23.8082 12.4416 25.67 13.5112C25.7381 13.5505 25.8077 13.5868 25.8803 13.6269C25.8925 13.6057 25.9026 13.5834 25.9106 13.5603C26.1209 12.0815 25.7986 10.7229 24.9128 9.52621C23.9779 8.2637 22.7017 7.55037 21.1382 7.37034C20.1117 7.23826 19.0695 7.43055 18.1578 7.92027C17.2652 8.40062 16.393 8.91803 15.5102 9.42183C14.4098 10.0542 13.3094 10.6896 12.2091 11.3281C12.138 11.3689 12.0479 11.4574 12.0472 11.5247C12.0358 12.4249 12.0396 13.3251 12.0396 14.2616ZM19.6041 16.5619V16.8252C19.6041 19.3744 19.6041 21.9241 19.6041 24.4744C19.6041 24.9494 19.4278 25.2944 18.9989 25.5387C17.1396 26.5977 15.2923 27.6734 13.4345 28.743L13.1977 28.8799C13.4655 29.0607 13.697 29.2362 13.9459 29.3799C15.3165 30.1712 16.7742 30.3414 18.2788 29.8686C20.5481 29.1591 22.0414 27.1166 22.061 24.7248C22.0792 22.5311 22.061 20.3306 22.0678 18.1331C22.0719 18.087 22.0614 18.0408 22.038 18.001C22.0145 17.9611 21.9792 17.9295 21.937 17.9107C21.7161 17.7896 21.5005 17.6588 21.2826 17.5325L19.6041 16.5619ZM6.3587 10.2834C5.56867 10.5625 4.85945 11.0316 4.29359 11.6496C2.98721 13.0966 2.5462 14.7858 3.00763 16.6754C3.37451 18.1739 4.27847 19.2935 5.6136 20.065C7.33628 21.0605 9.05871 22.0555 10.7809 23.05C10.9708 23.1597 11.1644 23.3458 11.3573 23.3473C11.5502 23.3488 11.7423 23.1619 11.9352 23.0575L12.0169 23.0106L13.8384 21.9615C13.7757 21.9236 13.728 21.8941 13.6788 21.8661C11.4549 20.5802 9.2332 19.2942 7.00319 18.0234C6.55386 17.767 6.35113 17.4182 6.3534 16.9061C6.36172 14.81 6.35718 12.7139 6.35718 10.6178L6.3587 10.2834ZM18.278 17.6142C18.278 17.0604 18.278 16.506 18.278 15.95C18.2846 15.9044 18.2765 15.8579 18.2551 15.8171C18.2336 15.7764 18.1998 15.7434 18.1585 15.723C17.191 15.1716 16.2281 14.6126 15.2598 14.0626C15.2257 14.0477 15.1888 14.0403 15.1516 14.041C15.1144 14.0416 15.0778 14.0503 15.0442 14.0664C14.0813 14.6126 13.1236 15.1678 12.1614 15.7162C12.1198 15.7357 12.0854 15.7677 12.0628 15.8077C12.0403 15.8477 12.0309 15.8937 12.0358 15.9394C12.0358 17.0476 12.0358 18.1558 12.0426 19.2632C12.046 19.3032 12.0581 19.342 12.0779 19.3768C12.0978 19.4117 12.125 19.4419 12.1576 19.4652C13.1158 20.0234 14.0755 20.5756 15.0367 21.1218C15.073 21.1384 15.1125 21.147 15.1524 21.147C15.1923 21.147 15.2318 21.1384 15.2681 21.1218C16.2311 20.5756 17.1895 20.0204 18.151 19.4712C18.1927 19.4524 18.2275 19.421 18.2505 19.3814C18.2734 19.3417 18.2833 19.2959 18.2788 19.2503C18.275 18.708 18.278 18.1603 18.278 17.6142Z" fill="white"/>
<path d="M48.2992 17.0756C48.2689 18.6233 47.9822 20.1362 47.1804 21.519C46.0321 23.5009 44.3248 24.6635 42.0524 24.9737C40.5312 25.181 39.0735 24.9525 37.7134 24.2286C36.162 23.4033 35.1098 22.1287 34.4721 20.5076C33.8783 18.9993 33.7436 17.4319 33.9214 15.8313C34.0515 14.6535 34.3798 13.5347 34.9887 12.5142C36.1907 10.4983 37.9593 9.33716 40.302 9.0951C41.8679 8.93171 43.3505 9.21538 44.7151 10.0248C45.986 10.7812 46.8899 11.8599 47.5019 13.1935C48.0639 14.416 48.278 15.7117 48.2992 17.0756ZM45.5215 16.8782C45.5167 16.0172 45.3576 15.164 45.0517 14.3592C44.3709 12.5619 42.7824 11.3478 40.74 11.5112C39.125 11.639 38.0016 12.5014 37.2838 13.9144C36.7959 14.8759 36.6226 15.9167 36.6196 16.9864C36.6196 18.2723 36.8292 19.5106 37.5327 20.6173C38.4714 22.0878 39.836 22.752 41.5622 22.5712C43.1198 22.4086 44.1939 21.5182 44.8732 20.1355C45.349 19.1642 45.52 18.1271 45.5215 16.8782Z" fill="white"/>
<path d="M95.2534 9.28598L101.131 24.8007C101.064 24.8045 101.022 24.809 100.98 24.809C100.154 24.809 99.3284 24.809 98.5031 24.809C98.4547 24.816 98.4055 24.8042 98.3656 24.7761C98.3257 24.748 98.298 24.7056 98.2882 24.6578C97.8873 23.5813 97.4773 22.5087 97.0779 21.4323C97.0257 21.2916 96.9577 21.2469 96.8064 21.2469C94.7019 21.253 92.5977 21.253 90.4938 21.2469C90.3425 21.2469 90.2797 21.2938 90.2283 21.436C89.844 22.4951 89.4469 23.5541 89.0603 24.6169C89.0104 24.7523 88.9507 24.809 88.7933 24.8068C88.0059 24.7969 87.2184 24.8022 86.4309 24.8022H86.2433C86.2713 24.7198 86.291 24.6547 86.319 24.5919C88.2303 19.5444 90.1423 14.4969 92.0551 9.44938C92.0861 9.36617 92.0967 9.27464 92.2344 9.2754C93.2322 9.28901 94.2337 9.28598 95.2534 9.28598ZM93.6285 12.3564C92.8123 14.5418 92.015 16.6787 91.2132 18.8263H96.0915C95.273 16.6757 94.4614 14.5433 93.6285 12.3564Z" fill="white"/>
<path d="M52.8212 23.6848V28.6774H50.2349V13.4728H52.8167V14.6498C52.8802 14.5984 52.9052 14.5825 52.9241 14.5621C53.7736 13.6324 54.8515 13.2542 56.0853 13.2481C57.1526 13.2428 58.1224 13.5356 58.9726 14.1937C59.5701 14.6631 60.0507 15.2646 60.3766 15.9509C61.0241 17.2679 61.1868 18.6628 61.0219 20.1068C60.8925 21.2347 60.5362 22.2778 59.8509 23.1931C59.5083 23.6664 59.075 24.0669 58.5761 24.3712C58.0773 24.6754 57.523 24.8775 56.9454 24.9655C56.0512 25.1122 55.1775 25.0502 54.3288 24.7091C53.8329 24.5043 53.3836 24.2012 53.0081 23.818C52.9616 23.7686 52.9176 23.7168 52.8764 23.6629L52.8212 23.6848ZM52.7312 19.1507C52.769 19.5629 52.7773 19.9828 52.85 20.3875C53.0058 21.2634 53.4105 22.007 54.2184 22.4337C55.6095 23.1682 57.5535 22.7816 58.2033 20.8527C58.4719 20.0554 58.518 19.2377 58.4235 18.4094C58.3546 17.8087 58.192 17.2338 57.8629 16.7217C57.2948 15.8374 56.4559 15.491 55.4302 15.5175C54.9142 15.5299 54.4135 15.6944 53.9907 15.9905C53.568 16.2866 53.2422 16.701 53.0542 17.1816C52.8031 17.8178 52.7471 18.4767 52.7312 19.1507Z" fill="white"/>
<path d="M73.0206 19.7096H65.0779C65.1105 19.904 65.1339 20.081 65.1702 20.2558C65.3329 21.0281 65.6543 21.7142 66.2845 22.218C67.0409 22.8231 67.9123 22.9427 68.8382 22.7528C69.6113 22.5939 70.1945 22.1703 70.5644 21.4668C70.6401 21.3292 70.6885 21.1794 70.7558 21.0213L72.9934 21.8678C72.7929 22.2248 72.6288 22.5856 72.4041 22.9048C71.5009 24.1953 70.2377 24.861 68.6847 25.0078C67.6644 25.1181 66.6333 24.9514 65.6997 24.5252C64.5825 24.026 63.6922 23.1273 63.2035 22.0054C62.3638 20.1219 62.3585 18.2073 63.1823 16.3275C63.8699 14.7571 65.0825 13.7435 66.7762 13.3774C67.8335 13.1328 68.9399 13.2097 69.9532 13.5983C71.0365 14.0158 71.8202 14.7647 72.3482 15.792C72.7588 16.6037 72.9871 17.4955 73.0168 18.4047C73.0358 18.8246 73.0206 19.2557 73.0206 19.7096ZM70.42 17.7428C70.3837 17.0114 70.1666 16.3812 69.5811 15.9115C68.7278 15.2307 66.8533 15.155 65.8843 16.3608C65.5648 16.7681 65.3367 17.2395 65.2156 17.7428H70.42Z" fill="white"/>
<path d="M84.5118 24.801H81.9233V24.5847C81.9233 22.3557 81.9213 20.1264 81.9172 17.8969C81.9179 17.4875 81.8337 17.0823 81.6699 16.707C81.3991 16.0921 80.9134 15.7759 80.2568 15.6836C79.1456 15.5255 78.0419 16.1964 77.7204 17.2645C77.6268 17.5909 77.58 17.9289 77.5813 18.2684C77.5692 20.3652 77.5752 22.4629 77.5752 24.5597V24.7995H74.9912V13.4755H77.5714V14.645C77.6115 14.6159 77.6496 14.5843 77.6856 14.5504C79.0412 13.0269 81.3801 12.9006 82.8386 13.8129C83.5708 14.2713 84.0239 14.9476 84.291 15.7524C84.4511 16.2708 84.5277 16.8113 84.5179 17.3538C84.5239 19.7971 84.5179 22.2405 84.5179 24.6845C84.5194 24.7156 84.5164 24.7473 84.5118 24.801Z" fill="white"/>
<path d="M102.841 9.33301H105.572V24.8402H102.841V9.33301Z" fill="white"/>
<path d="M0.0924045 0C0.143087 0.100608 0.189986 0.151287 0.184691 0.195917C0.179396 0.240548 0.125689 0.284422 0.0931617 0.329053C0.059878 0.285179 0.00390089 0.243575 -0.00139424 0.197432C-0.00668937 0.151288 0.0432354 0.101364 0.0924045 0Z" fill="white"/>
</g>
<defs>
<clipPath id="clip0_718_1353">
<rect width="105.572" height="32" fill="white"/>
</clipPath>
</defs>
</svg>
